<?xml version="1.0" encoding="utf-8"?>
<!-- Generator: Adobe Illustrator 21.0.2, SVG Export Plug-In . SVG Version: 6.00 Build 0)  -->
<svg version="1.1" id="Layer_5" xmlns="http://www.w3.org/2000/svg" xmlns:xlink="http://www.w3.org/1999/xlink" x="0px" y="0px"
	 viewBox="0 0 31 31" style="enable-background:new 0 0 31 31;" xml:space="preserve">
<style type="text/css">
	.st0{fill:#333333;}
</style>
<path class="st0" d="M23.8,7.7H7.2c-1.8,0-2.9,1.7-2.9,2.9v9.9c0,1.5,1.2,2.7,2.7,2.7H24c1.5,0,2.7-1.2,2.7-2.7v-10
	C26.7,9.1,25.3,7.7,23.8,7.7z M7.2,8.7h16.6c1,0,1.9,0.9,1.9,1.9v0.6H5.3v-0.5C5.3,10,6,8.7,7.2,8.7z M24,22.3H7
	c-1,0-1.8-0.8-1.8-1.8v-7h20.5v7C25.7,21.5,24.9,22.3,24,22.3z"/>
</svg>
