<?xml version="1.0" encoding="utf-8"?>
<!-- Generator: Adobe Illustrator 18.0.0, SVG Export Plug-In . SVG Version: 6.00 Build 0)  -->
<!DOCTYPE svg PUBLIC "-//W3C//DTD SVG 1.1//EN" "http://www.w3.org/Graphics/SVG/1.1/DTD/svg11.dtd">
<svg version="1.1" id="Layer_1" xmlns="http://www.w3.org/2000/svg" xmlns:xlink="http://www.w3.org/1999/xlink" x="0px" y="0px"
	 viewBox="0 0 40 40" enable-background="new 0 0 40 40" xml:space="preserve">
<g id="calendar" display="none">
	<path display="inline" fill="#333333" d="M36.9,4.7h-5V2.3c0-0.6-0.4-1-1-1c-0.6,0-1,0.4-1,1v2.4H10.1V2.3c0-0.6-0.4-1-1-1
		s-1,0.4-1,1v2.4h-5c-1.7,0-3,1.3-3,3v28.1c0,1.7,1.3,3,3,3h33.8c1.7,0,3-1.3,3-3V7.7C39.9,6,38.5,4.7,36.9,4.7z M3.1,6.7h5v3.8
		c0,0.6,0.4,1,1,1s1-0.4,1-1V6.7h19.8v3.8c0,0.6,0.4,1,1,1s1-0.4,1-1V6.7h5c0.6,0,1,0.4,1,1v5.2H2.1V7.7C2.1,7.1,2.6,6.7,3.1,6.7z
		 M36.9,36.7H3.1c-0.6,0-1-0.4-1-1V14.8h35.8v20.9C37.9,36.3,37.4,36.7,36.9,36.7z"/>
</g>
<path fill="#333333" d="M29.4,19H21l0-8.5c0-0.5-0.4-1-1-1c-0.5,0-1,0.4-1,1V19h-8.5c-0.5,0-1,0.4-1,1c0,0.5,0.4,1,1,1l8.5,0v8.5
	c0,0.5,0.4,1,1,1c0.5,0,1-0.4,1-1V21h8.5c0.5,0,1-0.4,1-1C30.4,19.5,30,19,29.4,19z"/>
</svg>
