<?xml version="1.0" encoding="utf-8"?>
<!-- Generator: Adobe Illustrator 21.0.2, SVG Export Plug-In . SVG Version: 6.00 Build 0)  -->
<svg version="1.1" id="Layer_4" xmlns="http://www.w3.org/2000/svg" xmlns:xlink="http://www.w3.org/1999/xlink" x="0px" y="0px"
	 viewBox="0 0 31 31" style="enable-background:new 0 0 31 31;" xml:space="preserve">
<style type="text/css">
	.st0{fill:#333333;}
</style>
<path class="st0" d="M30.4,12.4l-15.1-8l-14.8,8l6.2,3.3v10.8H8l0.1-0.3c0.6-1.4,1.9-2.2,3.4-2.2c1.5,0,2.8,0.9,3.4,2.2l0.1,0.3h1.1
	l0.1-0.3c0.6-1.4,1.9-2.2,3.4-2.2c1.5,0,2.8,0.9,3.4,2.2l0.1,0.3h0.9V15.8L30.4,12.4z M2.6,12.4l12.8-6.9l13,6.9l-12.8,6.9l-8.8-4.7
	v0L2.6,12.4z M23.2,24.6c-0.9-1-2.1-1.5-3.5-1.5c-1.7,0-3.3,0.9-4.1,2.4c-0.8-1.5-2.4-2.4-4.1-2.4c-1.5,0-2.9,0.7-3.7,1.8v-8.7
	l7.9,4.2l7.6-4.1V24.6z"/>
</svg>
