<?xml version="1.0" encoding="utf-8"?>
<!-- Generator: Adobe Illustrator 15.1.0, SVG Export Plug-In . SVG Version: 6.00 Build 0)  -->
<!DOCTYPE svg PUBLIC "-//W3C//DTD SVG 1.1//EN" "http://www.w3.org/Graphics/SVG/1.1/DTD/svg11.dtd">
<svg version="1.1" id="Layer_1" xmlns="http://www.w3.org/2000/svg" xmlns:xlink="http://www.w3.org/1999/xlink" x="0px" y="0px"
	 width="40px" height="40px" viewBox="0 0 40 40" enable-background="new 0 0 40 40" xml:space="preserve">
<g id="calendar" display="none">
	<path display="inline" fill="#999999" d="M36.896,4.661h-4.976V2.286c0-0.552-0.444-1-1-1c-0.553,0-1,0.448-1,1v2.375H10.076V2.286
		c0-0.552-0.448-1-1-1c-0.552,0-1,0.448-1,1v2.375H3.104c-1.654,0-3,1.346-3,3v28.053c0,1.654,1.346,3,3,3h33.791
		c1.654,0,3-1.346,3-3V7.661C39.896,6.007,38.55,4.661,36.896,4.661z M3.104,6.661h4.972v3.807c0,0.552,0.448,1,1,1
		c0.552,0,1-0.448,1-1V6.661h19.848v3.807c0,0.552,0.447,1,1,1s1-0.448,1-1V6.661h4.973c0.555,0,1,0.449,1,1v5.181H2.104V7.661
		C2.104,7.11,2.553,6.661,3.104,6.661z M36.896,36.714H3.104c-0.551,0-1-0.448-1-1V14.842h35.791v20.872
		C37.896,36.266,37.447,36.714,36.896,36.714z"/>
</g>
<path fill="#999999" d="M19.935,37.397c-1.165,0-2.326-0.117-3.45-0.351l-0.966-0.2l0.196-0.966
	c0.104-0.517,0.068-1.051-0.104-1.546c-0.261-0.699-0.78-1.269-1.456-1.584c-0.682-0.325-1.45-0.354-2.166-0.099
	c-0.485,0.177-0.938,0.504-1.27,0.92l-0.608,0.762l-0.772-0.597c-1.522-1.178-2.821-2.576-3.861-4.157l-0.544-0.825l0.825-0.545
	c1.094-0.723,1.548-2.08,1.104-3.302c-0.442-1.219-1.703-1.994-3.005-1.831L2.88,23.201l-0.129-0.978
	c-0.261-1.991-0.184-3.965,0.231-5.87l0.21-0.966l0.967,0.209c0.516,0.11,1.052,0.075,1.541-0.103
	c0.708-0.258,1.278-0.78,1.604-1.471c0.319-0.673,0.353-1.434,0.094-2.145c-0.173-0.483-0.492-0.926-0.902-1.25l-0.773-0.612
	l0.61-0.776c1.203-1.53,2.617-2.826,4.203-3.853l0.836-0.542l0.537,0.84c0.694,1.088,2.12,1.59,3.339,1.153
	c1.23-0.45,2.01-1.716,1.848-3.01L16.972,2.84l0.99-0.117C19.893,2.496,21.851,2.59,23.721,3l0.988,0.218l-0.238,0.983
	c-0.131,0.537-0.1,1.097,0.09,1.619c0.256,0.716,0.772,1.282,1.455,1.599c0.678,0.318,1.448,0.346,2.156,0.087
	c0.509-0.182,0.965-0.511,1.292-0.929l0.616-0.79l0.782,0.626c1.511,1.206,2.792,2.627,3.809,4.222l0.545,0.854l-0.866,0.525
	c-1.142,0.692-1.644,2.112-1.192,3.377c0.448,1.227,1.708,2.025,3.019,1.843l1.006-0.137l0.111,1.01
	c0.205,1.859,0.113,3.71-0.271,5.502l-0.211,0.98l-0.978-0.223c-0.513-0.117-1.057-0.083-1.549,0.098
	c-0.72,0.265-1.287,0.781-1.598,1.453c-0.316,0.68-0.352,1.453-0.101,2.18c0.175,0.475,0.497,0.917,0.925,1.259l0.768,0.613
	l-0.606,0.771c-1.208,1.538-2.619,2.834-4.197,3.854l-0.829,0.536l-0.538-0.828c-0.7-1.075-2.097-1.56-3.327-1.123
	c-1.208,0.455-1.988,1.714-1.834,2.985l0.119,0.983l-0.983,0.119C21.366,37.354,20.645,37.397,19.935,37.397z M17.754,35.26
	c1.052,0.153,2.122,0.194,3.211,0.123c0.169-1.803,1.36-3.396,3.136-4.064c1.818-0.641,3.752-0.152,5.023,1.112
	c0.875-0.645,1.688-1.393,2.426-2.234c-0.357-0.429-0.639-0.912-0.831-1.433c-0.426-1.235-0.363-2.534,0.169-3.679
	c0.531-1.149,1.495-2.031,2.713-2.479c0.521-0.191,1.066-0.288,1.622-0.288c0.008,0,0.015,0,0.021,0
	c0.155-1.018,0.206-2.053,0.151-3.097c-1.84-0.163-3.457-1.391-4.103-3.156c-0.648-1.817-0.141-3.819,1.2-5.107
	c-0.635-0.876-1.367-1.686-2.188-2.42c-0.432,0.359-0.926,0.642-1.462,0.833c-1.186,0.433-2.518,0.384-3.666-0.155
	c-1.164-0.539-2.047-1.507-2.482-2.723c-0.201-0.557-0.297-1.14-0.285-1.723c-1.096-0.175-2.214-0.229-3.334-0.158
	c-0.173,1.815-1.388,3.446-3.153,4.091c-1.774,0.637-3.768,0.148-5.042-1.146C10.002,8.203,9.19,8.95,8.454,9.788
	c0.35,0.423,0.624,0.903,0.809,1.42c0.439,1.207,0.382,2.51-0.167,3.664c-0.55,1.164-1.516,2.047-2.717,2.484
	c-0.52,0.189-1.065,0.285-1.621,0.285c-0.176,1.13-0.22,2.285-0.132,3.452c1.846,0.161,3.462,1.382,4.1,3.14
	c0.639,1.762,0.189,3.686-1.087,4.982c0.652,0.875,1.401,1.679,2.237,2.402c0.429-0.355,0.916-0.637,1.441-0.828
	c1.222-0.437,2.542-0.373,3.684,0.171c1.143,0.532,2.023,1.493,2.475,2.703C17.657,34.184,17.75,34.723,17.754,35.26z M20,26.141
	c-2.562,0-4.874-1.62-5.754-4.03c-1.144-3.172,0.501-6.685,3.665-7.833c0.669-0.241,1.364-0.363,2.069-0.363
	c2.565,0,4.88,1.62,5.762,4.031c1.137,3.168-0.508,6.679-3.664,7.832C21.404,26.019,20.707,26.141,20,26.141z M19.981,15.894
	c-0.475,0-0.944,0.083-1.396,0.245c-2.137,0.776-3.249,3.152-2.477,5.295c0.595,1.628,2.159,2.725,3.892,2.725
	c0.478,0,0.95-0.082,1.404-0.246c2.131-0.777,3.244-3.153,2.476-5.294C23.285,16.992,21.718,15.894,19.981,15.894z"/>
</svg>
