<?xml version="1.0" encoding="utf-8"?>
<!-- Generator: Adobe Illustrator 21.0.2, SVG Export Plug-In . SVG Version: 6.00 Build 0)  -->
<svg version="1.1" id="Layer_1" xmlns="http://www.w3.org/2000/svg" xmlns:xlink="http://www.w3.org/1999/xlink" x="0px" y="0px"
	 viewBox="0 0 31 31" style="enable-background:new 0 0 31 31;" xml:space="preserve">
<style type="text/css">
	.st0{fill:#333333;}
</style>
<g>
	<path class="st0" d="M19.4,22.7h3.9v-5.8h-3.9V22.7z M20.4,17.9h1.9v3.9h-1.9V17.9z"/>
	<path class="st0" d="M7.7,22.7h3.9v-5.8H7.7V22.7z M8.7,17.9h1.9v3.9H8.7V17.9z"/>
	<path class="st0" d="M27.7,8.6c0-1.9-1.5-3.4-3.4-3.4H6.7c-1.9,0-3.4,1.5-3.4,3.4v7h1.5v10.2h21.4V15.6h1.5V8.6z M13.5,24.8v-4.4
		c0-1.1,0.9-2,2-2s2,0.9,2,2v4.4H13.5z M25.2,24.8h-6.9v-4.4c0-1.6-1.3-2.9-2.9-2.9s-2.9,1.3-2.9,2.9v4.4H5.8v-9.3h5.6l4.1-6.4
		l4.1,6.4h5.6V24.8z M26.7,14.6h-6.6l-4.7-7.2l-4.7,7.2H4.3v-6c0-1.3,1.1-2.4,2.4-2.4h17.6c1.3,0,2.4,1.1,2.4,2.4V14.6z"/>
</g>
</svg>
