<?xml version="1.0" encoding="utf-8"?>
<!-- Generator: Adobe Illustrator 15.1.0, SVG Export Plug-In . SVG Version: 6.00 Build 0)  -->
<!DOCTYPE svg PUBLIC "-//W3C//DTD SVG 1.1//EN" "http://www.w3.org/Graphics/SVG/1.1/DTD/svg11.dtd">
<svg version="1.1" id="Layer_1" xmlns="http://www.w3.org/2000/svg" xmlns:xlink="http://www.w3.org/1999/xlink" x="0px" y="0px"
	 width="40px" height="40px" viewBox="0 0 40 40" enable-background="new 0 0 40 40" xml:space="preserve">
<g id="calendar" display="none">
	<path display="inline" fill="#CCCCCC" d="M36.896,4.661H31.92V2.286c0-0.552-0.443-1-1-1c-0.553,0-1,0.448-1,1v2.375H10.076V2.286
		c0-0.552-0.448-1-1-1c-0.552,0-1,0.448-1,1v2.375H3.104c-1.654,0-3,1.346-3,3v28.053c0,1.654,1.346,3,3,3h33.791
		c1.654,0,3-1.346,3-3V7.661C39.896,6.007,38.55,4.661,36.896,4.661z M3.104,6.661h4.972v3.807c0,0.552,0.448,1,1,1
		c0.552,0,1-0.448,1-1V6.661h19.848v3.807c0,0.552,0.447,1,1,1s1-0.448,1-1V6.661h4.973c0.556,0,1,0.449,1,1v5.181H2.104V7.661
		C2.104,7.11,2.553,6.661,3.104,6.661z M36.896,36.714H3.104c-0.551,0-1-0.448-1-1V14.842h35.791v20.872
		C37.896,36.266,37.447,36.714,36.896,36.714z"/>
</g>
<g>
	<path fill="#CCCCCC" d="M7.873,15.228c0-0.254,0.098-0.507,0.29-0.7c0.387-0.387,1.014-0.387,1.399,0L20,24.964l10.438-10.437
		c0.388-0.387,1.015-0.387,1.399,0c0.386,0.388,0.388,1.015,0,1.4L20,27.766L8.163,15.928C7.971,15.734,7.873,15.481,7.873,15.228z"
		/>
</g>
</svg>
