<?xml version="1.0" encoding="utf-8"?>
<!-- Generator: Adobe Illustrator 15.1.0, SVG Export Plug-In . SVG Version: 6.00 Build 0)  -->
<!DOCTYPE svg PUBLIC "-//W3C//DTD SVG 1.1//EN" "http://www.w3.org/Graphics/SVG/1.1/DTD/svg11.dtd">
<svg version="1.1" id="Layer_1" xmlns="http://www.w3.org/2000/svg" xmlns:xlink="http://www.w3.org/1999/xlink" x="0px" y="0px"
	 width="40px" height="40px" viewBox="0 0 40 40" enable-background="new 0 0 40 40" xml:space="preserve">
<g id="calendar" display="none">
	<path display="inline" fill="#999999" d="M36.896,4.661H31.92V2.286c0-0.552-0.443-1-1-1c-0.553,0-1,0.448-1,1v2.375H10.076V2.286
		c0-0.552-0.448-1-1-1c-0.552,0-1,0.448-1,1v2.375H3.104c-1.654,0-3,1.346-3,3v28.053c0,1.654,1.346,3,3,3h33.791
		c1.654,0,3-1.346,3-3V7.661C39.896,6.007,38.55,4.661,36.896,4.661z M3.104,6.661h4.972v3.807c0,0.552,0.448,1,1,1
		c0.552,0,1-0.448,1-1V6.661h19.848v3.807c0,0.552,0.447,1,1,1s1-0.448,1-1V6.661h4.973c0.557,0,1,0.449,1,1v5.181H2.104V7.661
		C2.104,7.11,2.553,6.661,3.104,6.661z M36.896,36.714H3.104c-0.551,0-1-0.448-1-1V14.842h35.791v20.872
		C37.896,36.266,37.447,36.714,36.896,36.714z"/>
</g>
<path fill="#999999" d="M33.268,31.852L21.414,20L33.266,8.147c0.391-0.391,0.391-1.024,0-1.414c-0.392-0.391-1.023-0.391-1.414,0
	L20,18.586L8.147,6.735c-0.391-0.391-1.023-0.391-1.414,0s-0.391,1.023,0,1.414L18.586,20L6.735,31.854
	c-0.391,0.391-0.391,1.022,0,1.414c0.195,0.194,0.451,0.293,0.707,0.293c0.256,0,0.512-0.099,0.707-0.293L20,21.414l11.854,11.852
	c0.194,0.195,0.451,0.293,0.707,0.293s0.512-0.098,0.707-0.293C33.657,32.875,33.657,32.242,33.268,31.852z"/>
</svg>
